<svg width="30" height="30" viewBox="0 0 30 30" fill="none" xmlns="http://www.w3.org/2000/svg">
<circle cx="15" cy="15" r="15" fill="#E5E5E5"/>
<path d="M19.2343 10.7143H18.2143V9.42857C18.2143 9.31491 18.1691 9.2059 18.0888 9.12553C18.0084 9.04515 17.8994 9 17.7857 9H13.3414C12.1904 9.00113 11.0868 9.4589 10.2728 10.2728C9.4589 11.0868 9.00113 12.1904 9 13.3414V20.5714C9 20.6851 9.04515 20.7941 9.12553 20.8745C9.2059 20.9548 9.31491 21 9.42857 21C9.54224 21 9.65124 20.9548 9.73162 20.8745C9.81199 20.7941 9.85714 20.6851 9.85714 20.5714V13.3414C9.85828 12.4177 10.2257 11.5321 10.8789 10.8789C11.5321 10.2257 12.4177 9.85828 13.3414 9.85714H17.3571V10.7143H16.3414C15.872 10.7143 15.4218 10.9008 15.0898 11.2327C14.7579 11.5646 14.5714 12.0149 14.5714 12.4843V12.8571C14.5714 12.9708 14.6166 13.0798 14.697 13.1602C14.7773 13.2406 14.8863 13.2857 15 13.2857H20.5714C20.6851 13.2857 20.7941 13.2406 20.8745 13.1602C20.9548 13.0798 21 12.9708 21 12.8571V12.4843C21 12.0156 20.8141 11.566 20.4831 11.2342C20.1521 10.9024 19.703 10.7154 19.2343 10.7143ZM15.4286 12.4286C15.4438 12.1966 15.5465 11.9791 15.716 11.82C15.8854 11.6609 16.109 11.572 16.3414 11.5714H19.2343C19.466 11.5731 19.6885 11.6624 19.857 11.8214C20.0256 11.9804 20.1277 12.1973 20.1429 12.4286H15.4286Z" fill="#666666"/>
<path d="M18.8228 15.5529V14.6957C18.8228 14.5821 18.7777 14.473 18.6973 14.3927C18.6169 14.3123 18.5079 14.2671 18.3942 14.2671C18.2806 14.2671 18.1716 14.3123 18.0912 14.3927C18.0108 14.473 17.9657 14.5821 17.9657 14.6957V15.5529C17.9657 15.6665 18.0108 15.7755 18.0912 15.8559C18.1716 15.9363 18.2806 15.9814 18.3942 15.9814C18.5079 15.9814 18.6169 15.9363 18.6973 15.8559C18.7777 15.7755 18.8228 15.6665 18.8228 15.5529ZM19.2599 15.5914C19.1463 15.5914 19.0373 15.6366 18.9569 15.717C18.8765 15.7973 18.8314 15.9063 18.8314 16.02V16.8771C18.8314 16.9908 18.8765 17.0998 18.9569 17.1802C19.0373 17.2606 19.1463 17.3057 19.2599 17.3057C19.3736 17.3057 19.4826 17.2606 19.563 17.1802C19.6434 17.0998 19.6885 16.9908 19.6885 16.8771V16.02C19.6885 15.9063 19.6434 15.7973 19.563 15.717C19.4826 15.6366 19.3736 15.5914 19.2599 15.5914ZM17.9485 16.17C17.8349 16.17 17.7258 16.2152 17.6455 16.2955C17.5651 16.3759 17.5199 16.4849 17.5199 16.5986V17.4557C17.5199 17.5694 17.5651 17.6784 17.6455 17.7588C17.7258 17.8391 17.8349 17.8843 17.9485 17.8843C18.0622 17.8843 18.1712 17.8391 18.2516 17.7588C18.3319 17.6784 18.3771 17.5694 18.3771 17.4557V16.5986C18.3771 16.4849 18.3319 16.3759 18.2516 16.2955C18.1712 16.2152 18.0622 16.17 17.9485 16.17ZM18.8571 17.5714C18.7434 17.5714 18.6344 17.6166 18.554 17.697C18.4737 17.7773 18.4285 17.8863 18.4285 18V18.8571C18.4285 18.9708 18.4737 19.0798 18.554 19.1602C18.6344 19.2406 18.7434 19.2857 18.8571 19.2857C18.9708 19.2857 19.0798 19.2406 19.1601 19.1602C19.2405 19.0798 19.2857 18.9708 19.2857 18.8571V18C19.2857 17.8863 19.2405 17.7773 19.1601 17.697C19.0798 17.6166 18.9708 17.5714 18.8571 17.5714ZM19.4657 13.41C19.352 13.41 19.243 13.4552 19.1626 13.5355C19.0822 13.6159 19.0371 13.7249 19.0371 13.8386V14.6957C19.0371 14.8094 19.0822 14.9184 19.1626 14.9988C19.243 15.0791 19.352 15.1243 19.4657 15.1243C19.5793 15.1243 19.6883 15.0791 19.7687 14.9988C19.8491 14.9184 19.8942 14.8094 19.8942 14.6957V13.8386C19.8942 13.7249 19.8491 13.6159 19.7687 13.5355C19.6883 13.4552 19.5793 13.41 19.4657 13.41ZM17.7342 15.2786V14.4214C17.7342 14.3078 17.6891 14.1988 17.6087 14.1184C17.5283 14.038 17.4193 13.9929 17.3057 13.9929C17.192 13.9929 17.083 14.038 17.0026 14.1184C16.9222 14.1988 16.8771 14.3078 16.8771 14.4214V15.2786C16.8771 15.3922 16.9222 15.5012 17.0026 15.5816C17.083 15.662 17.192 15.7071 17.3057 15.7071C17.4193 15.7071 17.5283 15.662 17.6087 15.5816C17.6891 15.5012 17.7342 15.3922 17.7342 15.2786ZM16.6242 14.8586V14.0014C16.6242 13.8878 16.5791 13.7788 16.4987 13.6984C16.4183 13.618 16.3093 13.5729 16.1957 13.5729C16.082 13.5729 15.973 13.618 15.8926 13.6984C15.8122 13.7788 15.7671 13.8878 15.7671 14.0014V14.8586C15.7671 14.9722 15.8122 15.0812 15.8926 15.1616C15.973 15.242 16.082 15.2871 16.1957 15.2871C16.3093 15.2871 16.4183 15.242 16.4987 15.1616C16.5791 15.0812 16.6242 14.9722 16.6242 14.8586ZM17.1428 16.8771V16.02C17.1428 15.9063 17.0977 15.7973 17.0173 15.717C16.9369 15.6366 16.8279 15.5914 16.7142 15.5914C16.6006 15.5914 16.4916 15.6366 16.4112 15.717C16.3308 15.7973 16.2857 15.9063 16.2857 16.02V16.8771C16.2857 16.9908 16.3308 17.0998 16.4112 17.1802C16.4916 17.2606 16.6006 17.3057 16.7142 17.3057C16.8279 17.3057 16.9369 17.2606 17.0173 17.1802C17.0977 17.0998 17.1428 16.9908 17.1428 16.8771ZM17.3057 17.85C17.192 17.85 17.083 17.8952 17.0026 17.9755C16.9222 18.0559 16.8771 18.1649 16.8771 18.2786V19.1357C16.8771 19.2494 16.9222 19.3584 17.0026 19.4388C17.083 19.5191 17.192 19.5643 17.3057 19.5643C17.4193 19.5643 17.5283 19.5191 17.6087 19.4388C17.6891 19.3584 17.7342 19.2494 17.7342 19.1357V18.2786C17.7342 18.1649 17.6891 18.0559 17.6087 17.9755C17.5283 17.8952 17.4193 17.85 17.3057 17.85Z" fill="#666666"/>
</svg>
