<svg width="30" height="30" viewBox="0 0 30 30" fill="none" xmlns="http://www.w3.org/2000/svg">
<circle cx="15" cy="15" r="15" fill="#E5E5E5"/>
<path d="M9.96 14.8V19.6C9.96 19.7273 9.90943 19.8494 9.81941 19.9394C9.72939 20.0294 9.6073 20.08 9.48 20.08C9.3527 20.08 9.23061 20.0294 9.14059 19.9394C9.05057 19.8494 9 19.7273 9 19.6V14.8C9 14.6727 9.05057 14.5506 9.14059 14.4606C9.23061 14.3706 9.3527 14.32 9.48 14.32C9.6073 14.32 9.72939 14.3706 9.81941 14.4606C9.90943 14.5506 9.96 14.6727 9.96 14.8Z" fill="#666666"/>
<path d="M20.52 19.12H9.48C9.3527 19.12 9.23061 19.0694 9.14059 18.9794C9.05057 18.8894 9 18.7673 9 18.64V15.76C9 15.6327 9.05057 15.5106 9.14059 15.4206C9.23061 15.3306 9.3527 15.28 9.48 15.28H20.52C20.6473 15.28 20.7694 15.3306 20.8594 15.4206C20.9494 15.5106 21 15.6327 21 15.76V18.64C21 18.7673 20.9494 18.8894 20.8594 18.9794C20.7694 19.0694 20.6473 19.12 20.52 19.12ZM9.96 18.16H20.04V16.24H9.96V18.16ZM15.72 14.3238H14.28C14.1527 14.3238 14.0306 14.2733 13.9406 14.1833C13.8506 14.0932 13.8 13.9711 13.8 13.8438V13.36H12.36V13.84C12.36 13.9673 12.3094 14.0894 12.2194 14.1794C12.1294 14.2694 12.0073 14.32 11.88 14.32H10.44C10.3127 14.32 10.1906 14.2694 10.1006 14.1794C10.0106 14.0894 9.96 13.9673 9.96 13.84V11.44C9.96 10.6461 10.6061 10 11.4 10H18.6C19.3939 10 20.04 10.6461 20.04 11.44V13.84C20.04 13.9673 19.9894 14.0894 19.8994 14.1794C19.8094 14.2694 19.6873 14.32 19.56 14.32H18.12C17.9927 14.32 17.8706 14.2694 17.7806 14.1794C17.6906 14.0894 17.64 13.9673 17.64 13.84V13.36H16.2V13.8438C16.2 13.9711 16.1494 14.0932 16.0594 14.1833C15.9694 14.2733 15.8473 14.3238 15.72 14.3238ZM14.76 13.3638L15.24 13.36C15.24 12.8306 15.6706 12.4 16.2 12.4H17.64C18.1694 12.4 18.6 12.8306 18.6 13.36H19.08V11.44C19.08 11.1755 18.8645 10.96 18.6 10.96H11.4C11.1355 10.96 10.92 11.1755 10.92 11.44V13.36H11.4C11.4 12.8306 11.8306 12.4 12.36 12.4H13.8C14.3294 12.4 14.76 12.8306 14.76 13.36V13.3638Z" fill="#666666"/>
<path d="M21 14.8V19.6C21 19.7273 20.9495 19.8494 20.8595 19.9394C20.7694 20.0294 20.6473 20.08 20.52 20.08C20.3927 20.08 20.2706 20.0294 20.1806 19.9394C20.0906 19.8494 20.04 19.7273 20.04 19.6V14.8C20.04 14.6727 20.0906 14.5506 20.1806 14.4606C20.2706 14.3706 20.3927 14.32 20.52 14.32C20.6473 14.32 20.7694 14.3706 20.8595 14.4606C20.9495 14.5506 21 14.6727 21 14.8Z" fill="#666666"/>
</svg>
