<svg width="45" height="45" viewBox="0 0 45 45" fill="none" xmlns="http://www.w3.org/2000/svg">
<circle cx="22.5" cy="22.5" r="22.5" fill="#04152F" fill-opacity="0.3"/>
<path d="M18.1318 16.3681C16.4946 16.3681 14.9786 16.8906 13.8801 17.9185C12.7816 18.9464 12.1184 20.4756 12.1184 22.3815C12.1184 24.3817 13.525 26.2406 15.4305 28.0661C17.3361 29.8916 19.7872 31.6928 22.0311 33.5627C22.1632 33.6684 22.3689 33.6684 22.5009 33.5627C24.7441 31.6935 27.1899 29.8862 29.1016 28.066C31.0132 26.2459 32.4372 24.4026 32.4372 22.3816C32.4372 20.4545 31.7514 18.9413 30.6519 17.9185C29.5525 16.8957 28.0592 16.3681 26.4238 16.3682C24.7411 16.3681 23.3194 17.4296 22.266 18.5057C21.217 17.436 19.8107 16.3681 18.1318 16.3681Z" fill="white"/>
</svg>
