<svg width="45" height="45" viewBox="0 0 45 45" fill="none" xmlns="http://www.w3.org/2000/svg">
<circle cx="22.5" cy="22.5" r="22.5" fill="#04152F" fill-opacity="0.3"/>
<path d="M29.4368 25.5237V18.5524C29.4368 15.2119 26.1055 15.2211 26.1055 15.2211H24.9953V13L21.664 16.332L24.9953 19.6633V17.4422H26.1055C27.0846 17.4422 27.2157 18.5524 27.2157 18.5524V25.5237C26.8787 25.7168 26.5987 25.9953 26.4037 26.3312C26.2088 26.6671 26.1059 27.0484 26.1055 27.4368C26.1055 28.6626 27.1008 29.6579 28.3266 29.6579C29.5524 29.6579 30.5477 28.6619 30.5477 27.4368C30.5468 27.0485 30.4438 26.6673 30.2489 26.3315C30.054 25.9957 29.7742 25.7171 29.4375 25.5237H29.4368ZM28.3266 28.5477C28.0321 28.5477 27.7496 28.4308 27.5413 28.2226C27.333 28.0144 27.2159 27.732 27.2157 27.4375C27.223 27.1478 27.3432 26.8724 27.5507 26.6701C27.7581 26.4678 28.0365 26.3546 28.3262 26.3546C28.616 26.3546 28.8943 26.4678 29.1018 26.6701C29.3093 26.8724 29.4295 27.1478 29.4368 27.4375C29.4368 28.0515 28.9398 28.5477 28.3266 28.5477ZM16.1102 18.4763V25.4469C16.1102 28.7874 19.4422 28.7789 19.4422 28.7789H20.5524V31L23.8837 27.6687L20.5524 24.3367V26.5578H19.4422C18.4631 26.5578 18.332 25.4476 18.332 25.4476V18.477C18.6689 18.2837 18.9489 18.005 19.1439 17.669C19.3388 17.3331 19.4417 16.9516 19.4422 16.5632C19.4422 15.3374 18.4469 14.3421 17.2211 14.3421C15.9953 14.3421 15 15.3374 15 16.5632C15 17.3837 15.4483 18.0914 16.1102 18.477V18.4763ZM17.2211 17.7199C16.9267 17.7199 16.6443 17.603 16.4361 17.3948C16.2279 17.1866 16.1109 16.9042 16.1109 16.6097C16.1109 16.3153 16.2279 16.0329 16.4361 15.8247C16.6443 15.6165 16.9267 15.4995 17.2211 15.4995C17.5155 15.4995 17.7979 15.6165 18.0061 15.8247C18.2143 16.0329 18.3313 16.3153 18.3313 16.6097C18.3313 16.9042 18.2143 17.1866 18.0061 17.3948C17.7979 17.603 17.5155 17.7199 17.2211 17.7199Z" fill="white"/>
</svg>
