<svg width="15" height="13" viewBox="0 0 15 13" fill="none" xmlns="http://www.w3.org/2000/svg">
<path d="M15 3.16219V9.84375C15 10.4654 14.7531 11.0615 14.3135 11.501C13.874 11.9406 13.2779 12.1875 12.6562 12.1875H2.34375C1.72215 12.1875 1.12601 11.9406 0.686468 11.501C0.24693 11.0615 0 10.4654 0 9.84375V3.16219L7.26188 7.43531C7.33402 7.47786 7.41624 7.5003 7.5 7.5003C7.58376 7.5003 7.66598 7.47786 7.73812 7.43531L15 3.16219ZM12.6562 2.90181e-08C13.2329 -9.06712e-05 13.7894 0.212444 14.2193 0.596944C14.6491 0.981443 14.922 1.51091 14.9859 2.08406L7.5 6.4875L0.0140626 2.08406C0.0779609 1.51091 0.350929 0.981443 0.780745 0.596944C1.21056 0.212444 1.76705 -9.06712e-05 2.34375 2.90181e-08H12.6562Z" fill="white"/>
</svg>
