<svg width="15" height="15" viewBox="0 0 15 15" fill="none" xmlns="http://www.w3.org/2000/svg">
<path d="M12.1152 5.76947H10.9613C10.9608 5.31057 10.7783 4.87059 10.4538 4.5461C10.1293 4.22161 9.68937 4.03911 9.23047 4.03865V2.88477C9.99526 2.88568 10.7285 3.1899 11.2693 3.73069C11.81 4.27148 12.1143 5.00468 12.1152 5.76947Z" fill="white"/>
<path d="M14.4229 5.76962H13.2691C13.2678 4.6989 12.842 3.67237 12.0848 2.91526C11.3277 2.15814 10.3012 1.73225 9.23047 1.73103V0.577148C10.6071 0.578676 11.927 1.12623 12.9004 2.09968C13.8739 3.07312 14.4214 4.39296 14.4229 5.76962Z" fill="white"/>
<path d="M9.99957 10.663L11.2919 9.37069C11.4649 9.19766 11.6849 9.07919 11.9245 9.02997C12.1642 8.98074 12.4131 9.00292 12.6402 9.09376L14.2141 9.72378C14.4461 9.81659 14.645 9.97679 14.785 10.1837C14.9251 10.3906 14.9999 10.6347 14.9999 10.8846V13.7468C15.0003 13.9169 14.966 14.0853 14.8991 14.2417C14.8321 14.3981 14.734 14.5392 14.6106 14.6563C14.4873 14.7735 14.3413 14.8642 14.1817 14.923C14.022 14.9818 13.8521 15.0074 13.6822 14.9982C2.64992 14.3116 0.421769 4.96747 0.00810151 1.38928C-0.0119336 1.21435 0.0052934 1.03716 0.0586496 0.869362C0.112006 0.701566 0.200282 0.546968 0.317672 0.415736C0.435062 0.284503 0.578905 0.17961 0.739741 0.107957C0.900576 0.0363034 1.07476 -0.000487188 1.25083 4.87137e-06H4.06227C4.31212 -3.1516e-06 4.55625 0.0748524 4.76316 0.214915C4.97007 0.354978 5.13026 0.553823 5.22308 0.785799L5.85252 2.3597C5.94336 2.58688 5.96554 2.83573 5.91631 3.07539C5.86708 3.31506 5.74862 3.53502 5.57559 3.70801L4.28324 5.00036C4.28324 5.00036 4.9998 10.0382 9.99957 10.663Z" fill="white"/>
</svg>
