<svg width="15" height="20" viewBox="0 0 15 20" fill="none" xmlns="http://www.w3.org/2000/svg">
<path d="M7.5 0C5.5116 0.00234577 3.60531 0.793275 2.1993 2.19929C0.793282 3.6053 0.00235375 5.51159 7.97923e-06 7.49999C-0.00237354 9.12492 0.528403 10.7057 1.51092 12C1.51092 12 1.71546 12.2693 1.74887 12.3082L7.5 19.0909L13.2539 12.3048C13.2839 12.2686 13.4891 12 13.4891 12L13.4898 11.9979C14.4718 10.7043 15.0023 9.12417 15 7.49999C14.9976 5.51159 14.2067 3.6053 12.8007 2.19929C11.3947 0.793275 9.4884 0.00234577 7.5 0ZM7.5 10.2273C6.9606 10.2273 6.43331 10.0673 5.98481 9.76763C5.53631 9.46796 5.18675 9.04202 4.98033 8.54367C4.77391 8.04533 4.7199 7.49697 4.82513 6.96793C4.93037 6.43889 5.19011 5.95294 5.57153 5.57152C5.95294 5.19011 6.4389 4.93036 6.96794 4.82513C7.49697 4.71989 8.04534 4.7739 8.54368 4.98032C9.04202 5.18674 9.46797 5.53631 9.76764 5.9848C10.0673 6.4333 10.2273 6.96059 10.2273 7.49999C10.2264 8.22303 9.93874 8.9162 9.42747 9.42747C8.91621 9.93873 8.22304 10.2264 7.5 10.2273Z" fill="white"/>
</svg>
