<svg width="14" height="18" viewBox="0 0 14 18" fill="none" xmlns="http://www.w3.org/2000/svg">
<path fill-rule="evenodd" clip-rule="evenodd" d="M5.75647 11.5617C5.74647 11.6117 5.72648 11.6517 5.71648 11.7017C5.06648 14.2517 4.99647 14.8217 4.32647 16.0117C4.00647 16.5717 3.64648 17.1117 3.24648 17.6217C3.19648 17.6817 3.15648 17.7517 3.06648 17.7317C2.96648 17.7117 2.95647 17.6217 2.94647 17.5417C2.83647 16.7617 2.77647 15.9917 2.80647 15.2017C2.83647 14.1817 2.96648 13.8317 4.28648 8.30168C4.30648 8.22168 4.28647 8.15168 4.25647 8.07168C3.94647 7.22168 3.87647 6.36168 4.15647 5.48168C4.75647 3.59168 6.88647 3.45168 7.26647 5.01168C7.49647 5.97168 6.88648 7.23168 6.41648 9.10168C6.02648 10.6417 7.83648 11.7317 9.38648 10.6117C10.8165 9.58168 11.3665 7.10168 11.2565 5.34168C11.0465 1.84168 7.20647 1.08168 4.76647 2.21168C1.97647 3.50168 1.33648 6.97168 2.59648 8.55168C2.75648 8.75168 2.87647 8.87168 2.82647 9.08168C2.74647 9.40168 2.67647 9.72168 2.58647 10.0317C2.51647 10.2617 2.32647 10.3517 2.08647 10.2517C1.61647 10.0617 1.23648 9.77168 0.916475 9.38168C-0.153525 8.05168 -0.463524 5.43168 0.956476 3.21168C2.52648 0.751683 5.44648 -0.24832 8.10648 0.0516797C11.2865 0.41168 13.3065 2.59168 13.6765 5.05168C13.8465 6.17168 13.7265 8.95168 12.1465 10.9117C10.3265 13.1617 7.38648 13.3117 6.02648 11.9317C5.94648 11.8217 5.85647 11.6917 5.75647 11.5617Z" fill="#E7FAFF"/>
</svg>
