<svg width="18" height="18" viewBox="0 0 18 18" fill="none" xmlns="http://www.w3.org/2000/svg">
<path d="M13.8445 3.06006C13.2945 3.06006 12.8445 3.51006 12.8445 4.06006C12.8445 4.62006 13.2945 5.07006 13.8445 5.07006C14.4045 5.07006 14.8545 4.62006 14.8545 4.06006C14.8445 3.51006 14.3945 3.06006 13.8445 3.06006Z" fill="#E7FAFF"/>
<path d="M9.3743 4.3501C7.0443 4.3501 5.1543 6.2401 5.1543 8.5701C5.1543 10.9001 7.0443 12.7901 9.3743 12.7901C11.7043 12.7901 13.5943 10.9001 13.5943 8.5701C13.5943 6.2401 11.7043 4.3501 9.3743 4.3501ZM9.3743 11.2801C7.8843 11.2801 6.6743 10.0701 6.6743 8.5801C6.6743 7.0901 7.8843 5.8801 9.3743 5.8801C10.8643 5.8801 12.0743 7.0901 12.0743 8.5801C12.0743 10.0701 10.8643 11.2801 9.3743 11.2801Z" fill="#E7FAFF"/>
<path d="M12.7244 17.14H5.88437C3.04437 17.14 0.734375 14.83 0.734375 11.99V5.15C0.734375 2.31 3.04437 0 5.88437 0H12.7244C15.5644 0 17.8744 2.31 17.8744 5.15V11.99C17.8744 14.83 15.5644 17.14 12.7244 17.14ZM5.88437 1.61C3.93437 1.61 2.34438 3.2 2.34438 5.15V11.99C2.34438 13.94 3.93437 15.53 5.88437 15.53H12.7244C14.6744 15.53 16.2644 13.94 16.2644 11.99V5.15C16.2644 3.2 14.6744 1.61 12.7244 1.61H5.88437Z" fill="#E7FAFF"/>
</svg>
