<svg width="96" height="21" viewBox="0 0 96 21" fill="none" xmlns="http://www.w3.org/2000/svg">
<path d="M90.4521 20.5L0 20.5L-1.79217e-06 8.34888e-06L89.8931 4.90167e-07C91.3063 3.66624e-07 92.0129 3.04852e-07 92.3638 0.2053C92.9684 0.558995 93.2477 1.28399 93.0367 1.95187C92.9142 2.33954 92.3902 2.81359 91.3423 3.7617L91.3423 3.76172L86.6451 8.0116C86.1783 8.43392 85.9449 8.64508 85.821 8.88083C85.6094 9.28351 85.5919 9.76048 85.7735 10.1776C85.8799 10.4218 86.0972 10.6494 86.5318 11.1047L92.0145 16.8486C92.9057 17.7822 93.3513 18.249 93.4483 18.6305C93.6152 19.2871 93.3212 19.9741 92.731 20.3067C92.3881 20.5 91.7428 20.5 90.4521 20.5Z" fill="#1266E3"/>
<path d="M17.2695 14H16.1387V10.0566H11.8379V14H10.7129V5.46875H11.8379V9.13672H16.1387V5.46875H17.2695V14ZM23.0117 14C22.9492 13.875 22.8984 13.6523 22.8594 13.332C22.3555 13.8555 21.7539 14.1172 21.0547 14.1172C20.4297 14.1172 19.916 13.9414 19.5137 13.5898C19.1152 13.2344 18.916 12.7852 18.916 12.2422C18.916 11.582 19.166 11.0703 19.666 10.707C20.1699 10.3398 20.877 10.1562 21.7871 10.1562H22.8418V9.6582C22.8418 9.2793 22.7285 8.97852 22.502 8.75586C22.2754 8.5293 21.9414 8.41602 21.5 8.41602C21.1133 8.41602 20.7891 8.51367 20.5273 8.70898C20.2656 8.9043 20.1348 9.14062 20.1348 9.41797H19.0449C19.0449 9.10156 19.1562 8.79688 19.3789 8.50391C19.6055 8.20703 19.9102 7.97266 20.293 7.80078C20.6797 7.62891 21.1035 7.54297 21.5645 7.54297C22.2949 7.54297 22.8672 7.72656 23.2812 8.09375C23.6953 8.45703 23.9102 8.95898 23.9258 9.59961V12.5176C23.9258 13.0996 24 13.5625 24.1484 13.9062V14H23.0117ZM21.2129 13.1738C21.5527 13.1738 21.875 13.0859 22.1797 12.9102C22.4844 12.7344 22.7051 12.5059 22.8418 12.2246V10.9238H21.9922C20.6641 10.9238 20 11.3125 20 12.0898C20 12.4297 20.1133 12.6953 20.3398 12.8867C20.5664 13.0781 20.8574 13.1738 21.2129 13.1738ZM30.9805 10.9004C30.9805 11.8652 30.7598 12.6426 30.3184 13.2324C29.877 13.8223 29.2793 14.1172 28.5254 14.1172C27.7559 14.1172 27.1504 13.873 26.709 13.3848V16.4375H25.625V7.66016H26.6152L26.668 8.36328C27.1094 7.81641 27.7227 7.54297 28.5078 7.54297C29.2695 7.54297 29.8711 7.83008 30.3125 8.4043C30.7578 8.97852 30.9805 9.77734 30.9805 10.8008V10.9004ZM29.8965 10.7773C29.8965 10.0625 29.7441 9.49805 29.4395 9.08398C29.1348 8.66992 28.7168 8.46289 28.1855 8.46289C27.5293 8.46289 27.0371 8.75391 26.709 9.33594V12.3652C27.0332 12.9434 27.5293 13.2324 28.1973 13.2324C28.7168 13.2324 29.1289 13.0273 29.4336 12.6172C29.7422 12.2031 29.8965 11.5898 29.8965 10.7773ZM37.7188 10.9004C37.7188 11.8652 37.498 12.6426 37.0566 13.2324C36.6152 13.8223 36.0176 14.1172 35.2637 14.1172C34.4941 14.1172 33.8887 13.873 33.4473 13.3848V16.4375H32.3633V7.66016H33.3535L33.4062 8.36328C33.8477 7.81641 34.4609 7.54297 35.2461 7.54297C36.0078 7.54297 36.6094 7.83008 37.0508 8.4043C37.4961 8.97852 37.7188 9.77734 37.7188 10.8008V10.9004ZM36.6348 10.7773C36.6348 10.0625 36.4824 9.49805 36.1777 9.08398C35.873 8.66992 35.4551 8.46289 34.9238 8.46289C34.2676 8.46289 33.7754 8.75391 33.4473 9.33594V12.3652C33.7715 12.9434 34.2676 13.2324 34.9355 13.2324C35.4551 13.2324 35.8672 13.0273 36.1719 12.6172C36.4805 12.2031 36.6348 11.5898 36.6348 10.7773ZM41.1055 12.4121L42.582 7.66016H43.7422L41.1934 14.9785C40.7988 16.0332 40.1719 16.5605 39.3125 16.5605L39.1074 16.543L38.7031 16.4668V15.5879L38.9961 15.6113C39.3633 15.6113 39.6484 15.5371 39.8516 15.3887C40.0586 15.2402 40.2285 14.9688 40.3613 14.5742L40.6016 13.9297L38.3398 7.66016H39.5234L41.1055 12.4121ZM47.8613 14V5.46875H50.6504C51.5762 5.46875 52.2715 5.66016 52.7363 6.04297C53.2051 6.42578 53.4395 6.99219 53.4395 7.74219C53.4395 8.14062 53.3262 8.49414 53.0996 8.80273C52.873 9.10742 52.5645 9.34375 52.1738 9.51172C52.6348 9.64062 52.998 9.88672 53.2637 10.25C53.5332 10.6094 53.668 11.0391 53.668 11.5391C53.668 12.3047 53.4199 12.9062 52.9238 13.3438C52.4277 13.7812 51.7266 14 50.8203 14H47.8613ZM48.9863 10.0098V13.0801H50.8438C51.3672 13.0801 51.7793 12.9453 52.0801 12.6758C52.3848 12.4023 52.5371 12.0273 52.5371 11.5508C52.5371 10.5234 51.9785 10.0098 50.8613 10.0098H48.9863ZM48.9863 9.10742H50.6855C51.1777 9.10742 51.5703 8.98438 51.8633 8.73828C52.1602 8.49219 52.3086 8.1582 52.3086 7.73633C52.3086 7.26758 52.1719 6.92773 51.8984 6.7168C51.625 6.50195 51.209 6.39453 50.6504 6.39453H48.9863V9.10742ZM59.082 13.373C58.6602 13.8691 58.041 14.1172 57.2246 14.1172C56.5488 14.1172 56.0332 13.9219 55.6777 13.5312C55.3262 13.1367 55.1484 12.5547 55.1445 11.7852V7.66016H56.2285V11.7559C56.2285 12.7168 56.6191 13.1973 57.4004 13.1973C58.2285 13.1973 58.7793 12.8887 59.0527 12.2715V7.66016H60.1367V14H59.1055L59.082 13.373ZM63.8633 12.4121L65.3398 7.66016H66.5L63.9512 14.9785C63.5566 16.0332 62.9297 16.5605 62.0703 16.5605L61.8652 16.543L61.4609 16.4668V15.5879L61.7539 15.6113C62.1211 15.6113 62.4062 15.5371 62.6094 15.3887C62.8164 15.2402 62.9863 14.9688 63.1191 14.5742L63.3594 13.9297L61.0977 7.66016H62.2812L63.8633 12.4121ZM70.0215 14.1172C69.1621 14.1172 68.4629 13.8359 67.9238 13.2734C67.3848 12.707 67.1152 11.9512 67.1152 11.0059V10.8066C67.1152 10.1777 67.2344 9.61719 67.4727 9.125C67.7148 8.62891 68.0508 8.24219 68.4805 7.96484C68.9141 7.68359 69.3828 7.54297 69.8867 7.54297C70.7109 7.54297 71.3516 7.81445 71.8086 8.35742C72.2656 8.90039 72.4941 9.67773 72.4941 10.6895V11.1406H68.1992C68.2148 11.7656 68.3965 12.2715 68.7441 12.6582C69.0957 13.041 69.541 13.2324 70.0801 13.2324C70.4629 13.2324 70.7871 13.1543 71.0527 12.998C71.3184 12.8418 71.5508 12.6348 71.75 12.377L72.4121 12.8926C71.8809 13.709 71.084 14.1172 70.0215 14.1172ZM69.8867 8.43359C69.4492 8.43359 69.082 8.59375 68.7852 8.91406C68.4883 9.23047 68.3047 9.67578 68.2344 10.25H71.4102V10.168C71.3789 9.61719 71.2305 9.19141 70.9648 8.89062C70.6992 8.58594 70.3398 8.43359 69.8867 8.43359ZM76.8184 8.63281C76.6543 8.60547 76.4766 8.5918 76.2852 8.5918C75.5742 8.5918 75.0918 8.89453 74.8379 9.5V14H73.7539V7.66016H74.8086L74.8262 8.39258C75.1816 7.82617 75.6855 7.54297 76.3379 7.54297C76.5488 7.54297 76.709 7.57031 76.8184 7.625V8.63281Z" fill="white"/>
</svg>
