<svg width="90" height="15" viewBox="0 0 90 15" fill="none" xmlns="http://www.w3.org/2000/svg">
<path d="M14.9884 6.00644C15.0634 5.6134 14.7636 5.14175 14.3889 5.14175L10.1172 4.51288L8.1687 0.425236C8.09376 0.268019 8.01882 0.18941 7.86893 0.110802C7.49422 -0.125024 7.04457 0.0321934 6.81974 0.425236L4.94619 4.51288L0.67448 5.14175C0.449653 5.14175 0.299769 5.22035 0.224827 5.37757C-0.0749422 5.69201 -0.0749422 6.16366 0.224827 6.47809L3.29746 9.62243L2.54803 14.1031C2.54803 14.2603 2.54803 14.4175 2.62298 14.5748C2.8478 14.9678 3.29746 15.125 3.67217 14.8892L7.49422 12.7668L11.3163 14.8892C11.3912 14.9678 11.5411 14.9678 11.691 14.9678C11.7659 14.9678 11.7659 14.9678 11.8409 14.9678C12.2156 14.8892 12.5153 14.4962 12.4404 14.0245L11.691 9.54382L14.7636 6.39948C14.9135 6.32087 14.9884 6.16366 14.9884 6.00644Z" fill="#FF9900"/>
<path d="M33.7384 6.00644C33.8134 5.6134 33.5136 5.14175 33.1389 5.14175L28.8672 4.51288L26.9187 0.425236C26.8438 0.268019 26.7688 0.18941 26.6189 0.110802C26.2442 -0.125024 25.7946 0.0321934 25.5697 0.425236L23.6962 4.51288L19.4245 5.14175C19.1997 5.14175 19.0498 5.22035 18.9748 5.37757C18.6751 5.69201 18.6751 6.16366 18.9748 6.47809L22.0475 9.62243L21.298 14.1031C21.298 14.2603 21.298 14.4175 21.373 14.5748C21.5978 14.9678 22.0475 15.125 22.4222 14.8892L26.2442 12.7668L30.0663 14.8892C30.1412 14.9678 30.2911 14.9678 30.441 14.9678C30.5159 14.9678 30.5159 14.9678 30.5909 14.9678C30.9656 14.8892 31.2653 14.4962 31.1904 14.0245L30.441 9.54382L33.5136 6.39948C33.6635 6.32087 33.7384 6.16366 33.7384 6.00644Z" fill="#FF9900"/>
<path d="M52.4884 6.00644C52.5634 5.6134 52.2636 5.14175 51.8889 5.14175L47.6172 4.51288L45.6687 0.425236C45.5938 0.268019 45.5188 0.18941 45.3689 0.110802C44.9942 -0.125024 44.5446 0.0321934 44.3197 0.425236L42.4462 4.51288L38.1745 5.14175C37.9497 5.14175 37.7998 5.22035 37.7248 5.37757C37.4251 5.69201 37.4251 6.16366 37.7248 6.47809L40.7975 9.62243L40.048 14.1031C40.048 14.2603 40.048 14.4175 40.123 14.5748C40.3478 14.9678 40.7975 15.125 41.1722 14.8892L44.9942 12.7668L48.8163 14.8892C48.8912 14.9678 49.0411 14.9678 49.191 14.9678C49.2659 14.9678 49.2659 14.9678 49.3409 14.9678C49.7156 14.8892 50.0153 14.4962 49.9404 14.0245L49.191 9.54382L52.2636 6.39948C52.4135 6.32087 52.4884 6.16366 52.4884 6.00644Z" fill="#FF9900"/>
<path d="M71.2384 6.00644C71.3134 5.6134 71.0136 5.14175 70.6389 5.14175L66.3672 4.51288L64.4187 0.425236C64.3438 0.268019 64.2688 0.18941 64.1189 0.110802C63.7442 -0.125024 63.2946 0.0321934 63.0697 0.425236L61.1962 4.51288L56.9245 5.14175C56.6997 5.14175 56.5498 5.22035 56.4748 5.37757C56.1751 5.69201 56.1751 6.16366 56.4748 6.47809L59.5475 9.62243L58.798 14.1031C58.798 14.2603 58.798 14.4175 58.873 14.5748C59.0978 14.9678 59.5475 15.125 59.9222 14.8892L63.7442 12.7668L67.5663 14.8892C67.6412 14.9678 67.7911 14.9678 67.941 14.9678C68.0159 14.9678 68.0159 14.9678 68.0909 14.9678C68.4656 14.8892 68.7653 14.4962 68.6904 14.0245L67.941 9.54382L71.0136 6.39948C71.1635 6.32087 71.2384 6.16366 71.2384 6.00644Z" fill="#FF9900"/>
<path d="M89.9884 6.00644C90.0634 5.6134 89.7636 5.14175 89.3889 5.14175L85.1172 4.51288L83.1687 0.425236C83.0938 0.268019 83.0188 0.18941 82.8689 0.110802C82.4942 -0.125024 82.0446 0.0321934 81.8197 0.425236L79.9462 4.51288L75.6745 5.14175C75.4497 5.14175 75.2998 5.22035 75.2248 5.37757C74.9251 5.69201 74.9251 6.16366 75.2248 6.47809L78.2975 9.62243L77.548 14.1031C77.548 14.2603 77.548 14.4175 77.623 14.5748C77.8478 14.9678 78.2975 15.125 78.6722 14.8892L82.4942 12.7668L86.3163 14.8892C86.3912 14.9678 86.5411 14.9678 86.691 14.9678C86.7659 14.9678 86.7659 14.9678 86.8409 14.9678C87.2156 14.8892 87.5153 14.4962 87.4404 14.0245L86.691 9.54382L89.7636 6.39948C89.9135 6.32087 89.9884 6.16366 89.9884 6.00644Z" fill="#FF9900"/>
</svg>
