<svg width="40" height="40" viewBox="0 0 40 40" fill="none" xmlns="http://www.w3.org/2000/svg">
<path fill-rule="evenodd" clip-rule="evenodd" d="M18.9431 3.11117C23.0577 2.85369 27.1247 4.10711 30.3805 6.63605C33.6363 9.16499 35.8569 12.7955 36.6253 16.8458C37.3921 20.8875 36.6603 25.0698 34.5673 28.6107C34.3458 28.9701 34.2757 29.4149 34.3975 29.8413L36.22 36.22L37.5154 35.8499L36.22 36.22L29.8413 34.3975C29.4214 34.2775 28.9756 34.3427 28.6118 34.5666C25.0707 36.6601 20.8879 37.3922 16.8457 36.6253C12.7954 35.8568 9.16492 33.6362 6.636 30.3804C4.10707 27.1246 2.85368 23.0576 3.11117 18.943C3.36867 14.8285 5.11934 10.9495 8.03446 8.0344C10.9496 5.1193 14.8286 3.36864 18.9431 3.11117ZM29.6186 37.5352C25.556 39.7637 20.8381 40.5157 16.272 39.6494C11.4849 38.7412 7.19401 36.1166 4.20507 32.2686C1.21613 28.4206 -0.265263 23.6138 0.0390739 18.7508C0.34341 13.8878 2.41253 9.30321 5.85791 5.85784C9.30329 2.41248 13.8879 0.34338 18.7509 0.039068C23.6139 -0.265244 28.4207 1.21617 32.2687 4.20513C36.1167 7.19409 38.7412 11.485 39.6494 16.2721C40.5157 20.8381 39.7637 25.5561 37.5352 29.6185L39.1797 35.3744C39.3305 35.9022 39.3374 36.4607 39.1997 36.9921C39.062 37.5235 38.7847 38.0084 38.3966 38.3966C38.0084 38.7847 37.5235 39.062 36.9921 39.1997C36.4607 39.3374 35.9022 39.3305 35.3744 39.1797L29.6186 37.5352Z" fill="#1266E3"/>
<path d="M19.9922 22.3008C18.7172 22.3008 17.6836 21.2672 17.6836 19.9922C17.6836 18.7172 18.7172 17.6836 19.9922 17.6836C21.2672 17.6836 22.3008 18.7172 22.3008 19.9922C22.3008 21.2672 21.2672 22.3008 19.9922 22.3008Z" fill="#1266E3"/>
<path d="M29.3086 22.6172C28.0336 22.6172 27 21.5836 27 20.3086C27 19.0336 28.0336 18 29.3086 18C30.5836 18 31.6172 19.0336 31.6172 20.3086C31.6172 21.5836 30.5836 22.6172 29.3086 22.6172Z" fill="#1266E3"/>
<path d="M10.7578 22.3008C9.48283 22.3008 8.44924 21.2672 8.44924 19.9922C8.44924 18.7172 9.48283 17.6836 10.7578 17.6836C12.0328 17.6836 13.0664 18.7172 13.0664 19.9922C13.0664 21.2672 12.0328 22.3008 10.7578 22.3008Z" fill="#1266E3"/>
</svg>
