<svg width="112" height="31" viewBox="0 0 112 31" fill="none" xmlns="http://www.w3.org/2000/svg">
<path d="M66.7308 30.9291C65.7138 30.9291 64.6967 30.8934 63.6797 30.8221C62.6805 30.7685 61.6367 30.6258 60.5483 30.3939V12.4085C61.4048 12.2479 62.3415 12.1319 63.3585 12.0606C64.3756 11.9714 65.3212 11.9268 66.1955 11.9268C67.3731 11.9268 68.4526 12.016 69.434 12.1944C70.4331 12.355 71.2896 12.6405 72.0033 13.0508C72.717 13.4612 73.2701 14.0054 73.6627 14.6834C74.073 15.3436 74.2782 16.1644 74.2782 17.1457C74.2782 18.6267 73.5645 19.7953 72.1371 20.6518C73.3147 21.0979 74.1176 21.7045 74.5459 22.4717C74.9741 23.239 75.1882 24.1043 75.1882 25.0678C75.1882 27.0127 74.4745 28.4758 73.0471 29.4571C71.6375 30.4385 69.5321 30.9291 66.7308 30.9291ZM64.6165 22.6056V27.3963C64.9198 27.432 65.2499 27.4587 65.6067 27.4766C65.9636 27.4944 66.3561 27.5034 66.7843 27.5034C68.0333 27.5034 69.0414 27.3249 69.8087 26.9681C70.5759 26.6112 70.9595 25.951 70.9595 24.9875C70.9595 24.1311 70.6383 23.5245 69.996 23.1676C69.3537 22.7929 68.4348 22.6056 67.2393 22.6056H64.6165ZM64.6165 19.4207H66.6505C67.9352 19.4207 68.8541 19.2601 69.4072 18.9389C69.9603 18.5999 70.2369 18.0646 70.2369 17.3331C70.2369 16.5837 69.9514 16.0573 69.3804 15.754C68.8095 15.4507 67.9709 15.299 66.8646 15.299C66.5078 15.299 66.1242 15.3079 65.7138 15.3258C65.3034 15.3258 64.9376 15.3436 64.6165 15.3793V19.4207Z" fill="white"/>
<path d="M84.0972 11.9268C86.8628 11.9268 88.9861 12.4174 90.467 13.3988C91.948 14.3623 92.6884 15.9503 92.6884 18.1627C92.6884 20.3931 91.9391 22.0078 90.4403 23.007C88.9415 23.9884 86.8004 24.479 84.0169 24.479H82.7055V30.6883H78.5303V12.4085C79.4403 12.2301 80.4038 12.1052 81.4208 12.0338C82.4379 11.9624 83.33 11.9268 84.0972 11.9268ZM84.3649 15.4864C84.0615 15.4864 83.7582 15.4953 83.4549 15.5131C83.1694 15.531 82.9196 15.5488 82.7055 15.5667V20.9194H84.0169C85.4622 20.9194 86.5506 20.7232 87.2821 20.3306C88.0137 19.9381 88.3795 19.2065 88.3795 18.136C88.3795 17.6185 88.2813 17.1903 88.0851 16.8513C87.9066 16.5123 87.639 16.2447 87.2821 16.0484C86.9431 15.8343 86.5238 15.6915 86.0242 15.6202C85.5246 15.531 84.9715 15.4864 84.3649 15.4864Z" fill="white"/>
<path d="M99.9296 27.2892C100.126 27.3071 100.349 27.3249 100.599 27.3428C100.866 27.3428 101.179 27.3428 101.535 27.3428C103.623 27.3428 105.166 26.8164 106.166 25.7637C107.183 24.711 107.691 23.2568 107.691 21.4012C107.691 19.4563 107.209 17.9843 106.246 16.9851C105.282 15.986 103.757 15.4864 101.669 15.4864C101.384 15.4864 101.089 15.4953 100.786 15.5131C100.483 15.5131 100.197 15.531 99.9296 15.5667V27.2892ZM112 21.4012C112 23.007 111.75 24.4077 111.251 25.6031C110.751 26.7986 110.037 27.7888 109.11 28.5739C108.2 29.359 107.084 29.9478 105.764 30.3403C104.444 30.7329 102.963 30.9291 101.321 30.9291C100.572 30.9291 99.6976 30.8934 98.6984 30.8221C97.6992 30.7685 96.7179 30.6437 95.7544 30.4474V12.3817C96.7179 12.2033 97.7171 12.0873 98.7519 12.0338C99.8046 11.9624 100.706 11.9268 101.455 11.9268C103.043 11.9268 104.479 12.1052 105.764 12.462C107.067 12.8189 108.182 13.3809 109.11 14.1482C110.037 14.9154 110.751 15.8967 111.251 17.0922C111.75 18.2876 112 19.724 112 21.4012Z" fill="white"/>
<path fill-rule="evenodd" clip-rule="evenodd" d="M31.5347 2.06318C29.9775 0.254331 27.1759 0.254331 25.6187 2.06318L6.52857 24.2386C4.35045 26.7687 6.14801 30.6881 9.48655 30.6881H47.6668C51.0053 30.6881 52.8029 26.7687 50.6248 24.2386L31.5347 2.06318ZM9.48655 29.5729H47.6668C50.0515 29.5729 51.3354 26.7734 49.7796 24.9661L30.6895 2.79073C29.5772 1.4987 27.5761 1.4987 26.4638 2.79073L7.37371 24.9661C5.81791 26.7734 7.10188 29.5729 9.48655 29.5729Z" fill="white"/>
<path d="M42.0909 30.6881H3.91062C0.572085 30.6881 -1.22548 26.7687 0.952644 24.2386L20.0428 2.06318C21.5999 0.254331 24.4015 0.254331 25.9587 2.06318L45.0488 24.2386C47.227 26.7687 45.4294 30.6881 42.0909 30.6881Z" fill="white"/>
<path d="M28.9799 23H19.0201C18.1492 23 17.6803 21.9542 18.2485 21.2791L23.2284 15.362C23.6346 14.8793 24.3654 14.8793 24.7716 15.362L29.7515 21.2791C30.3197 21.9542 29.8508 23 28.9799 23Z" fill="#5C8EFF"/>
</svg>
