<svg width="40" height="39" viewBox="0 0 40 39" fill="none" xmlns="http://www.w3.org/2000/svg">
<path d="M12.8572 38.5392C12.635 38.5387 12.416 38.4869 12.2172 38.3878L0.788592 32.6735C0.551601 32.5548 0.352326 32.3724 0.21306 32.1469C0.0737939 31.9213 3.02837e-05 31.6615 2.13885e-05 31.3964V5.68212C-0.00131531 5.43831 0.0600231 5.19824 0.178152 4.98495C0.296282 4.77166 0.467238 4.5923 0.674621 4.46409C0.882004 4.33587 1.11886 4.2631 1.36245 4.25275C1.60605 4.2424 1.84822 4.29482 2.06573 4.40498L13.4943 10.1193C13.98 10.3593 14.2857 10.8535 14.2857 11.3964V37.1107C14.2835 37.4889 14.1322 37.8509 13.8648 38.1183C13.5974 38.3858 13.2353 38.537 12.8572 38.5392ZM2.85716 30.5135L11.4286 34.7992V12.2764L2.85716 7.99069V30.5135ZM38.5714 38.5392C38.3493 38.5387 38.1303 38.4869 37.9314 38.3878L26.5029 32.6735C26.2659 32.5548 26.0666 32.3724 25.9273 32.1469C25.7881 31.9213 25.7143 31.6615 25.7143 31.3964V5.68212C25.713 5.43831 25.7743 5.19824 25.8924 4.98495C26.0106 4.77166 26.1815 4.5923 26.3889 4.46409C26.5963 4.33587 26.8331 4.2631 27.0767 4.25275C27.3203 4.2424 27.5625 4.29482 27.78 4.40498L39.2086 10.1193C39.6943 10.3593 40 10.8535 40 11.3964V37.1107C39.9977 37.4889 39.8465 37.8509 39.5791 38.1183C39.3117 38.3858 38.9496 38.537 38.5714 38.5392ZM28.5714 30.5135L37.1429 34.7992V12.2764L28.5714 7.99069V30.5135Z" fill="#1266E3"/>
<path d="M20.0001 20.0163C19.6211 20.0163 19.2574 19.8664 18.9886 19.5992L13.9401 14.5477C13.6799 14.2783 13.5359 13.9174 13.5391 13.5429C13.5424 13.1683 13.6926 12.81 13.9575 12.5451C14.2223 12.2803 14.5807 12.13 14.9552 12.1268C15.3298 12.1235 15.6906 12.2675 15.9601 12.5277L20.0001 16.5677L24.0401 12.5277C24.3095 12.2675 24.6704 12.1235 25.0449 12.1268C25.4195 12.13 25.7778 12.2803 26.0427 12.5451C26.3075 12.81 26.4578 13.1683 26.461 13.5429C26.4643 13.9174 26.3203 14.2783 26.0601 14.5477L21.0115 19.5992C20.8788 19.732 20.7211 19.8372 20.5475 19.9088C20.3739 19.9804 20.1878 20.0169 20.0001 20.0163Z" fill="#1266E3"/>
<path d="M25.0513 14.9678C24.769 14.9678 24.493 14.8841 24.2583 14.7273C24.0235 14.5705 23.8404 14.3476 23.7322 14.0869C23.624 13.8261 23.5955 13.5391 23.6502 13.2621C23.705 12.9852 23.8406 12.7307 24.0399 12.5307C25.1199 11.4479 25.7142 10.0136 25.7142 8.48785C25.7142 6.96214 25.1199 5.52785 24.0399 4.44785C21.8799 2.28786 18.1199 2.28786 15.9599 4.44785C14.8799 5.52785 14.2856 6.96214 14.2856 8.48785C14.2856 10.0136 14.8799 11.4479 15.9599 12.5279C16.2202 12.7973 16.3641 13.1581 16.3609 13.5327C16.3576 13.9073 16.2074 14.2656 15.9425 14.5304C15.6777 14.7953 15.3194 14.9456 14.9448 14.9488C14.5702 14.9521 14.2094 14.8081 13.9399 14.5478C13.1411 13.7542 12.5078 12.8099 12.0767 11.7696C11.6456 10.7294 11.4253 9.61389 11.4285 8.48785C11.4285 6.19643 12.3199 4.04785 13.9399 2.42786C17.1771 -0.809285 22.8228 -0.809285 26.0599 2.42786C27.6799 4.04785 28.5713 6.19643 28.5713 8.48785C28.5713 10.7764 27.6799 12.9307 26.0599 14.5478C25.9279 14.681 25.7708 14.7866 25.5976 14.8587C25.4245 14.9308 25.2389 14.9679 25.0513 14.9678Z" fill="#1266E3"/>
<path d="M27.1427 9.91609C26.7638 9.91609 26.4004 9.76558 26.1325 9.49767C25.8646 9.22976 25.7141 8.8664 25.7141 8.48752C25.7141 7.78181 25.5798 7.08181 25.3141 6.40466C25.1762 6.05411 25.1826 5.66322 25.3319 5.31738C25.4813 4.97154 25.7615 4.69888 26.1112 4.55895L26.6112 4.35895C26.8277 4.2707 27.0626 4.23714 27.2951 4.26125C27.5276 4.28535 27.7506 4.36637 27.9444 4.49715C28.1381 4.62792 28.2967 4.80442 28.406 5.01105C28.5154 5.21767 28.5721 5.44804 28.5712 5.68181V8.48752C28.5712 8.8664 28.4207 9.22976 28.1528 9.49767C27.8849 9.76558 27.5215 9.91609 27.1427 9.91609Z" fill="#1266E3"/>
<path d="M12.4286 38.48C12.0499 38.4792 11.687 38.3285 11.4193 38.0607C11.1515 37.793 11.0008 37.4301 11 37.0514V11.3371C10.9998 11.0522 11.0849 10.7737 11.2443 10.5374C11.4036 10.3012 11.63 10.118 11.8943 10.0114L12.4229 9.8C12.7731 9.65955 13.1646 9.66334 13.512 9.81054C13.8594 9.95775 14.1345 10.2364 14.2771 10.5857C14.5657 11.2914 14.9886 11.9257 15.5286 12.4686L19.5714 16.5086L23.6114 12.4686C24.6914 11.3886 25.2857 9.95428 25.2857 8.42857C25.2857 8.04969 25.4362 7.68633 25.7041 7.41842C25.972 7.15051 26.3354 7 26.7143 7C27.0932 7 27.4565 7.15051 27.7244 7.41842C27.9923 7.68633 28.1428 8.04969 28.1428 8.42857V31.3371C28.1428 31.6224 28.0573 31.9012 27.8974 32.1374C27.7375 32.3737 27.5105 32.5567 27.2457 32.6628L12.96 38.3771C12.791 38.445 12.6106 38.4799 12.4286 38.48ZM13.8571 14.8343V34.94L25.2857 30.3657V14.8343L20.5829 19.54C20.315 19.8078 19.9517 19.9583 19.5729 19.9583C19.194 19.9583 18.8307 19.8078 18.5629 19.54L13.8571 14.8343Z" fill="#1266E3"/>
<path d="M20.0001 9.7621C20.9863 9.7621 21.7858 8.96261 21.7858 7.97639C21.7858 6.99016 20.9863 6.19067 20.0001 6.19067C19.0138 6.19067 18.2144 6.99016 18.2144 7.97639C18.2144 8.96261 19.0138 9.7621 20.0001 9.7621Z" fill="#1266E3"/>
</svg>
