<svg width="40" height="40" viewBox="0 0 40 40" fill="none" xmlns="http://www.w3.org/2000/svg">
<path d="M12.6879 8.90866C12.3221 8.54066 12.1168 8.04286 12.1168 7.52398C12.1168 7.0051 12.3221 6.5073 12.6879 6.13931L18.2463 0.58097C18.4289 0.396881 18.6461 0.250765 18.8854 0.151051C19.1248 0.0513375 19.3815 0 19.6408 0C19.9001 0 20.1568 0.0513375 20.3961 0.151051C20.6355 0.250765 20.8527 0.396881 21.0353 0.58097L26.5936 6.13931C26.9594 6.5073 27.1647 7.0051 27.1647 7.52398C27.1647 8.04286 26.9594 8.54066 26.5936 8.90866C26.411 9.09275 26.1938 9.23886 25.9544 9.33858C25.7151 9.43829 25.4584 9.48963 25.1991 9.48963C24.9398 9.48963 24.6831 9.43829 24.4438 9.33858C24.2044 9.23886 23.9872 9.09275 23.8046 8.90866L19.6408 4.74481L15.4769 8.90866C15.2943 9.09275 15.0771 9.23886 14.8378 9.33858C14.5984 9.43829 14.3417 9.48963 14.0824 9.48963C13.8232 9.48963 13.5664 9.43829 13.3271 9.33858C13.0878 9.23886 12.8705 9.09275 12.6879 8.90866V8.90866ZM39.2815 16.8632C39.2815 17.3841 39.0746 17.8836 38.7063 18.252C38.3379 18.6203 37.8384 18.8272 37.3175 18.8272C36.6544 18.8286 35.9941 18.7428 35.3534 18.5719V32.1437C35.3534 34.2273 34.5257 36.2256 33.0523 37.6989C31.579 39.1723 29.5807 40 27.4971 40H11.7845C9.70084 40 7.70256 39.1723 6.22921 37.6989C4.75587 36.2256 3.92815 34.2273 3.92815 32.1437V18.5719C3.28749 18.7428 2.62713 18.8286 1.96408 18.8272C1.44317 18.8272 0.943601 18.6203 0.575265 18.252C0.206929 17.8836 0 17.3841 0 16.8632C0 16.3423 0.206929 15.8427 0.575265 15.4744C0.943601 15.106 1.44317 14.8991 1.96408 14.8991C3.31929 14.8991 3.92815 14.3688 5.0084 13.2885C5.73137 12.4292 6.63316 11.7379 7.65085 11.263C8.66853 10.7881 9.77759 10.5409 10.9006 10.5388C12.0237 10.5409 13.1327 10.7881 14.1504 11.263C15.1681 11.7379 16.0699 12.4292 16.7929 13.2885C17.8927 14.3688 18.482 14.8991 19.8175 14.8991C21.1531 14.8991 21.7816 14.3688 22.8619 13.2885C23.5637 12.4299 24.4476 11.7379 25.4497 11.2627C26.4517 10.7876 27.5469 10.5411 28.6559 10.5411C29.7649 10.5411 30.86 10.7876 31.8621 11.2627C32.8642 11.7379 33.7481 12.4299 34.4499 13.2885C35.5694 14.3688 36.1587 14.8991 37.4942 14.8991C37.9839 14.9433 38.4392 15.1696 38.7701 15.5333C39.101 15.8969 39.2835 16.3715 39.2815 16.8632ZM21.6048 26.2515H17.6767V36.0718H21.6048V26.2515ZM31.4252 16.4311C31.4187 16.3133 31.4187 16.1953 31.4252 16.0775C31.0735 15.6017 30.6187 15.2114 30.095 14.9359C29.5712 14.6604 28.992 14.5068 28.4006 14.4866C27.065 14.4866 26.4365 15.0169 25.3759 16.0972C24.6721 16.9562 23.7865 17.6483 22.7828 18.1235C21.7792 18.5988 20.6825 18.8453 19.572 18.8453C18.4615 18.8453 17.3649 18.5988 16.3612 18.1235C15.3576 17.6483 14.4719 16.9562 13.7682 16.0972C12.6683 15.0169 12.0791 14.4866 10.7239 14.4866C9.36865 14.4866 8.87763 14.9973 7.85631 16.0775C7.86547 16.1952 7.86547 16.3134 7.85631 16.4311V32.1437C7.85631 33.1855 8.27017 34.1846 9.00684 34.9213C9.74351 35.658 10.7427 36.0718 11.7845 36.0718H13.7485V24.2874C13.7485 23.7665 13.9555 23.2669 14.3238 22.8986C14.6921 22.5302 15.1917 22.3233 15.7126 22.3233H23.5689C24.0898 22.3233 24.5894 22.5302 24.9577 22.8986C25.3261 23.2669 25.533 23.7665 25.533 24.2874V36.0718H27.4971C28.5389 36.0718 29.538 35.658 30.2747 34.9213C31.0114 34.1846 31.4252 33.1855 31.4252 32.1437V16.4311Z" fill="#1266E3"/>
</svg>
