<svg width="40" height="40" viewBox="0 0 40 40" fill="none" xmlns="http://www.w3.org/2000/svg">
<path d="M36.0306 8.80005L26.5537 0.738553C26.0221 0.283892 25.3514 0.0239484 24.6522 0.00157511C23.9531 -0.0207982 23.2672 0.195735 22.7076 0.615477L18.5999 3.69238L16.0153 1.10778C15.4388 0.534705 14.659 0.21304 13.8461 0.21304C13.0332 0.21304 12.2534 0.534705 11.6769 1.10778L3.98459 8.87697C2.88596 9.02851 1.87863 9.57058 1.14693 10.404C0.415225 11.2374 0.00808199 12.3064 0 13.4154V34.9537C0 36.1778 0.48626 37.3517 1.35181 38.2173C2.21736 39.0828 3.39129 39.5691 4.61536 39.5691H35.3844C36.6085 39.5691 37.7824 39.0828 38.648 38.2173C39.5135 37.3517 39.9998 36.1778 39.9998 34.9537V13.4154C40.0108 12.2955 39.6142 11.2097 38.8839 10.3606C38.1537 9.51143 37.1395 8.95679 36.0306 8.80005ZM36.9229 27.2615H33.846C33.0299 27.2615 32.2473 26.9373 31.6703 26.3603C31.0932 25.7832 30.7691 25.0006 30.7691 24.1846C30.7691 23.3685 31.0932 22.5859 31.6703 22.0089C32.2473 21.4318 33.0299 21.1077 33.846 21.1077H36.9229V27.2615ZM24.6152 3.077L31.2306 8.80005H23.7076L20.7999 5.89237L24.6152 3.077ZM13.8461 3.277L19.3691 8.80005H8.32303L13.8461 3.277ZM35.3844 36.4922H4.61536C4.20734 36.4922 3.81602 36.3301 3.52751 36.0416C3.23899 35.7531 3.07691 35.3618 3.07691 34.9537V13.4154C3.07691 13.0074 3.23899 12.6161 3.52751 12.3276C3.81602 12.039 4.20734 11.877 4.61536 11.877H35.3844C35.7924 11.877 36.1838 12.039 36.4723 12.3276C36.7608 12.6161 36.9229 13.0074 36.9229 13.4154V18.0308H33.846C32.2139 18.0308 30.6486 18.6791 29.4946 19.8332C28.3405 20.9872 27.6922 22.5525 27.6922 24.1846C27.6922 25.8167 28.3405 27.3819 29.4946 28.536C30.6486 29.69 32.2139 30.3384 33.846 30.3384H36.9229V34.9537C36.9229 35.3618 36.7608 35.7531 36.4723 36.0416C36.1838 36.3301 35.7924 36.4922 35.3844 36.4922Z" fill="#1266E3"/>
</svg>
